<svg xmlns="http://www.w3.org/2000/svg" version="1.1" xmlns:xlink="http://www.w3.org/1999/xlink" xmlns:svgjs="http://svgjs.dev/svgjs" width="1500" height="1500" viewBox="0 0 1500 1500"><rect width="1500" height="1500" fill="#000000"></rect><g transform="matrix(0.6666666666666666,0,0,0.6666666666666666,250.00040625000003,187.66666666666674)"><svg viewBox="0 0 320 360" data-background-color="#ffffff" preserveAspectRatio="xMidYMid meet" height="1687" width="1500" xmlns="http://www.w3.org/2000/svg" xmlns:xlink="http://www.w3.org/1999/xlink"><g id="tight-bounds" transform="matrix(1,0,0,1,-0.00013000000001284207,0)"><svg viewBox="0 0 320 360" height="360" width="320"><g><svg></svg></g><g><svg viewBox="0 0 320 360" height="360" width="320"><g><path transform="translate(-40.79862,-27.54029) scale(4.05392,4.05392)" d="M89 41.809l-4.923-4.923v-6.962l-13.274-13.274h-6.962l-4.923-4.923h-18.772l-4.923 4.923h-6.962l-13.274 13.274v6.962l-4.923 4.923v18.773l4.923 4.923v6.962l13.275 13.273h6.962l4.923 4.923h18.773l4.923-4.923h6.962l13.274-13.274v-6.962l4.921-4.923zM70.345 17.755l12.627 12.627v5.399l-18.026-18.026zM82.972 37.344v27.703l-19.588 19.588h-27.703l-19.589-19.589v-27.702l19.589-19.589h27.703zM40.604 12.832h17.857l3.818 3.818h-25.493zM16.092 30.382l12.627-12.627h5.399l-18.026 18.026zM11.17 60.124v-17.858l3.818-3.818v25.492zM28.719 84.635l-12.627-12.627v-5.399l18.026 18.026zM58.461 89.558h-17.857l-3.818-3.818h25.492zM82.972 72.008l-12.627 12.627h-5.399l18.026-18.026zM87.895 60.124l-3.818 3.818v-25.493l3.818 3.818z" fill="#ffffff" fill-rule="nonzero" stroke="none" stroke-width="1" stroke-linecap="butt" stroke-linejoin="miter" stroke-miterlimit="10" stroke-dasharray="" stroke-dashoffset="0" font-family="none" font-weight="none" font-size="none" text-anchor="none" style="mix-blend-mode: normal" data-fill-palette-color="tertiary"></path></g><g transform="matrix(1,0,0,1,56,135.4463446230405)"><svg viewBox="0 0 208 89.10731075391904" height="89.10731075391904" width="208"><g><svg viewBox="0 0 369.2786019324451 158.199149697919" height="89.10731075391904" width="208"><g transform="matrix(1,0,0,1,161.27860193244507,9.76893147046053)"><svg viewBox="0 0 208 138.66128675699795" height="138.66128675699795" width="208"><g id="textblocktransform"><svg viewBox="0 0 208 138.66128675699795" height="138.66128675699795" width="208" id="textblock"><g><svg viewBox="0 0 208 138.66128675699795" height="138.66128675699795" width="208"><g transform="matrix(1,0,0,1,0,0)"><svg width="208" viewBox="1 -37.15 58.960869564424996 39.30595238095238" height="138.66128675699795" data-palette-color="#000000"><g class="wordmark-text-0" data-fill-palette-color="primary" id="text-0"><path d="M17.35-35.8L17.35-35.8Q17.25-35.95 17.07-36.27 16.9-36.6 17-36.7L17-36.7Q17.1-36.8 17.32-36.65 17.55-36.5 17.6-36.45L17.6-36.45Q18.5-35.8 19.28-34.65 20.05-33.5 20.68-32.13 21.3-30.75 21.8-29.25 22.3-27.75 22.6-26.4L22.6-26.4Q23.35-23.1 23.88-19.9 24.4-16.7 24.4-13.3L24.4-13.3Q24.4-13.2 24.43-12.7 24.45-12.2 24.25-12.1L24.25-12.1Q24.1-12.2 23.93-12.6 23.75-13 23.7-13.15L23.7-13.15Q23.1-15 22.63-17.38 22.15-19.75 21.75-21.7L21.75-21.7Q21.45-23.2 21.2-24.58 20.95-25.95 20.63-27.25 20.3-28.55 19.88-29.88 19.45-31.2 18.85-32.65L18.85-32.65Q18.75-32.85 18.53-33.35 18.3-33.85 18.05-34.35 17.8-34.85 17.6-35.27 17.4-35.7 17.35-35.8ZM29.35 1.25L29.35 1.25Q28.8 0.95 28.6 0.88 28.4 0.8 27.85 0.45L27.85 0.45Q26.65-0.25 25.65-1.38 24.65-2.5 23.85-3.85 23.05-5.2 22.43-6.73 21.8-8.25 21.35-9.75L21.35-9.75Q20.35-9.1 18.98-8.97 17.6-8.85 16.45-8.85L16.45-8.85Q15-8.85 13.58-8.95 12.15-9.05 10.7-9.05L10.7-9.05Q9.3-6.45 8.08-4.03 6.85-1.6 6.15 0.5L6.15 0.5Q6.15 0.55 6.1 0.73 6.05 0.9 5.95 0.9L5.95 0.9Q5.8 0.9 5.8 0.55 5.8 0.2 5.8 0.1L5.8 0.1Q5.8-1.9 6.78-4.38 7.75-6.85 8.95-9.25L8.95-9.25 8.2-9.3Q7.9-8.6 7.38-7.35 6.85-6.1 6.38-4.75 5.9-3.4 5.53-2.15 5.15-0.9 5.15-0.15L5.15-0.15Q5.15 0 5 0L5 0Q4.8 0 4.7-0.33 4.6-0.65 4.53-1.05 4.45-1.45 4.42-1.88 4.4-2.3 4.4-2.45L4.4-2.45Q4.4-4.2 4.85-6.13 5.3-8.05 6.05-9.65L6.05-9.65 5.4-9.75Q4.95-8.65 4.55-7.58 4.15-6.5 3.85-5.35L3.85-5.35Q3.85-5.25 3.8-5.1 3.75-4.95 3.65-5L3.65-5Q3.55-5.2 3.53-5.48 3.5-5.75 3.5-5.95L3.5-5.95Q3.5-8.05 4.25-10L4.25-10Q4.5-10.5 4.75-10.5L4.75-10.5Q5.8-10.8 6.88-10.85 7.95-10.9 9.1-10.9L9.1-10.9Q11.6-10.9 14.05-10.53 16.5-10.15 18.95-10.15L18.95-10.15Q20.15-10.15 21.15-10.35L21.15-10.35 21.05-11.15Q20.5-11 19.88-10.95 19.25-10.9 18.7-10.9L18.7-10.9Q16.75-10.9 14.68-11.3 12.6-11.7 10.7-12.25L10.7-12.25Q10.6-12.35 10.3-12.43 10-12.5 10-12.65L10-12.65Q10-12.75 10.3-12.83 10.6-12.9 10.7-12.9L10.7-12.9Q11.4-12.95 12.08-12.98 12.75-13 13.45-13L13.45-13Q14.6-13 15.75-12.98 16.9-12.95 18.1-12.95L18.1-12.95Q18.7-12.95 19.35-12.95 20-12.95 20.6-13L20.6-13 20.5-13.55 19.85-13.55Q17.45-13.55 15.08-14 12.7-14.45 10.3-14.45L10.3-14.45Q8.25-14.45 6.68-13.95 5.1-13.45 3.98-12.8 2.85-12.15 2.15-11.5 1.45-10.85 1.15-10.55L1.15-10.55Q1.05-10.5 1.05-10.5L1.05-10.5Q1-10.5 1-10.6L1-10.6Q1-10.65 1.05-10.7L1.05-10.7Q1.95-12.45 3.25-13.63 4.55-14.8 6.45-15.4L6.45-15.4Q8.35-19.45 10.38-23.45 12.4-27.45 14.65-31.35L14.65-31.35Q14.7-31.45 14.85-31.68 15-31.9 15.15-31.9L15.15-31.9Q15.2-31.85 15.2-31.8L15.2-31.8 15.2-31.7Q15.2-31.3 15.15-31.1L15.15-31.1Q14.2-27.05 12.35-23.3 10.5-19.55 8.55-15.9L8.55-15.9 9.5-15.95Q9.65-16.25 10.28-17.25 10.9-18.25 11.63-19.33 12.35-20.4 12.95-21.28 13.55-22.15 13.7-22.15L13.7-22.15 13.75-22Q13.75-21.75 13.45-20.9 13.15-20.05 12.75-19.05 12.35-18.05 11.98-17.18 11.6-16.3 11.45-15.95L11.45-15.95Q11.75-15.95 12.05-15.93 12.35-15.9 12.65-15.9L12.65-15.9Q13.55-17.7 14.58-19.68 15.6-21.65 16.35-23.7 17.1-25.75 17.38-27.85 17.65-29.95 17.05-32L17.05-32Q17.05-31.75 16.93-31 16.8-30.25 16.6-29.43 16.4-28.6 16.2-27.98 16-27.35 15.8-27.35L15.8-27.35Q15.65-27.35 15.68-27.55 15.7-27.75 15.7-27.8L15.7-27.8Q15.7-29.1 15.88-30.38 16.05-31.65 16.05-32.95L16.05-32.95Q16.05-34.7 15.5-36.35L15.5-36.35Q15.5-36.4 15.35-36.77 15.2-37.15 15.45-37.15L15.45-37.15Q15.55-37.15 15.8-36.9L15.8-36.9Q16.3-36.4 16.78-35.55 17.25-34.7 17.65-33.73 18.05-32.75 18.4-31.8 18.75-30.85 18.95-30.2L18.95-30.2Q19.6-28.05 20.03-25.88 20.45-23.7 20.78-21.53 21.1-19.35 21.45-17.15 21.8-14.95 22.25-12.8L22.25-12.8Q22.7-10.7 23.33-8.7 23.95-6.7 24.85-4.9 25.75-3.1 26.93-1.58 28.1-0.05 29.65 1.1L29.65 1.1Q29.9 1.35 29.83 1.43 29.75 1.5 29.35 1.25ZM29.1-3.6L29.25-3Q29.3-2.7 29.2-2.73 29.1-2.75 28.98-2.9 28.85-3.05 28.73-3.25 28.6-3.45 28.6-3.5L28.6-3.5Q27.4-5.7 26.7-7.98 26-10.25 25.6-12.58 25.2-14.9 24.93-17.28 24.65-19.65 24.28-22.13 23.9-24.6 23.3-27.15 22.7-29.7 21.6-32.35L21.6-32.35Q21.55-32.45 21.45-32.7 21.35-32.95 21.45-33L21.45-33Q21.55-33 21.7-32.85L21.7-32.85 21.9-32.65Q23-31.35 23.85-29.2 24.7-27.05 25.35-24.6 26-22.15 26.43-19.75 26.85-17.35 27.1-15.55L27.1-15.55Q27.5-12.7 27.95-9.55 28.4-6.4 29.1-3.6L29.1-3.6ZM14.4-15.7L14.4-15.7Q15.85-15.55 17.28-15.35 18.7-15.15 20.15-15.05L20.15-15.05Q19.6-17.7 19.2-20.3 18.8-22.9 18.45-25.6L18.45-25.6Q17.8-23 16.68-20.55 15.55-18.1 14.4-15.7ZM30.85 0.7L30.85 0.7Q29.85 0.25 29.1-0.18 28.35-0.6 27.8-1.35L27.8-1.35Q26.95-2.5 26.48-3.65 26-4.8 25.7-5.8L25.7-5.8Q25.6-6.2 25.53-6.7 25.45-7.2 25.55-7.2L25.55-7.2Q25.75-7.2 26.05-6.55 26.35-5.9 26.6-5.45L26.6-5.45Q27.35-3.9 28.5-2.33 29.65-0.75 31 0.25L31 0.25Q31.4 0.6 31.25 0.7 31.1 0.8 30.85 0.7ZM1.3-8.9L1.3-8.9Q1.3-8.9 1.2-8.9L1.2-8.9 1.15-8.9Q1.15-9.05 1.2-9.2 1.25-9.35 1.3-9.5L1.3-9.5Q1.7-10.35 2.08-10.78 2.45-11.2 3.3-11.7L3.3-11.7Q3.8-12 4.7-12.3 5.6-12.6 6.15-12.6L6.15-12.6Q6.25-12.6 6.43-12.58 6.6-12.55 6.6-12.4L6.6-12.4Q6.6-12.25 6.08-12 5.55-11.75 5.4-11.65L5.4-11.65Q3.5-10.5 2.6-9.9 1.7-9.3 1.3-8.9ZM44.05-9.65L44.05-9.65Q45.65-8.2 47.05-6.58 48.45-4.95 49.75-3.2L49.75-3.2Q49.8-3.1 50.02-2.83 50.25-2.55 50.15-2.45L50.15-2.45Q50.1-2.4 49.77-2.53 49.45-2.65 49.35-2.75L49.35-2.75Q48.95-3 48.42-3.4 47.9-3.8 47.32-4.25 46.75-4.7 46.2-5.18 45.65-5.65 45.3-6.05L45.3-6.05Q45.05-6.25 44.1-7.08 43.15-7.9 41.95-8.85 40.75-9.8 39.5-10.6 38.25-11.4 37.45-11.6L37.45-11.6Q37.3-11.65 37.02-11.75 36.75-11.85 36.8-12.1L36.8-12.1Q37.2-14 37.8-15.8 38.4-17.6 38.95-19.5L38.95-19.5Q39.65-21.85 40.27-24.3 40.9-26.75 41-29.6L41-29.6Q41-29.85 41.05-29.85L41.05-29.85Q41.2-29.85 41.3-29.5L41.3-29.5Q41.9-28.15 41.8-26 41.7-23.85 41.27-21.53 40.85-19.2 40.22-17.07 39.6-14.95 39.15-13.7L39.15-13.7 39-13.3Q40.85-14.55 42.85-15.8 44.85-17.05 46.57-18.32 48.3-19.6 49.57-20.98 50.85-22.35 51.3-23.85L51.3-23.85Q51.6-24.85 51.22-25.85 50.85-26.85 49.92-27.73 49-28.6 47.6-29.25 46.2-29.9 44.5-30.15L44.5-30.15Q42.25-30.45 39.95-30.3L39.95-30.3Q40.15-28.8 40.02-27.28 39.9-25.75 39.65-24.65L39.65-24.65Q39-21.95 38-19.07 37-16.2 35.95-13.7L35.95-13.7Q35.85-13.55 35.65-13.2 35.45-12.85 35.3-12.9L35.3-12.9Q35.2-12.95 35.25-13.35 35.3-13.75 35.3-13.9L35.3-13.9Q35.35-14.5 35.52-15.38 35.7-16.25 35.87-17.2 36.05-18.15 36.27-19.03 36.5-19.9 36.7-20.55L36.7-20.55Q36.8-20.85 37.02-21.83 37.25-22.8 37.5-24.15 37.75-25.5 38-27.05 38.25-28.6 38.4-30.05L38.4-30.05 37.7-29.95Q37.55-28.05 37.1-26.1 36.65-24.15 36.07-22.18 35.5-20.2 34.87-18.18 34.25-16.15 33.8-14.2L33.8-14.2Q33.4-12.45 33.17-10.55 32.95-8.65 33.02-6.8 33.1-4.95 33.47-3.23 33.85-1.5 34.7-0.1L34.7-0.1Q34.8 0.15 34.7 0.15L34.7 0.15Q34.6 0.15 34.45 0L34.45 0Q33.2-1.45 32.55-3.25 31.9-5.05 31.72-7.03 31.55-9 31.77-11.1 32-13.2 32.45-15.2L32.45-15.2Q33.3-18.95 34.5-22.6 35.7-26.25 36.5-29.65L36.5-29.65Q35.25-29.35 34.05-28.93 32.85-28.5 31.8-28L31.8-28Q31.55-27.9 31.5-27.95L31.5-27.95Q31.45-28 31.55-28.13 31.65-28.25 31.75-28.3L31.75-28.3Q34.25-30.35 37.85-31.2 41.45-32.05 45.2-31.65L45.2-31.65Q47.15-31.4 48.77-30.55 50.4-29.7 51.45-28.48 52.5-27.25 52.82-25.75 53.15-24.25 52.5-22.75L52.5-22.75Q51.75-21 50.12-19.5 48.5-18 46.47-16.7 44.45-15.4 42.2-14.3 39.95-13.2 38-12.25L38-12.25Q38.8-12.25 39.65-12 40.5-11.75 41.32-11.38 42.15-11 42.87-10.55 43.6-10.1 44.05-9.65ZM57.9-22.15L57.9-22.15Q57.15-19.55 55.62-17.73 54.1-15.9 52.25-14.7 50.4-13.5 48.5-12.88 46.6-12.25 45.2-12.05L45.2-12.05Q44.8-11.95 44.47-11.98 44.15-12 44.2-12.1L44.2-12.1Q44.1-12.2 44.42-12.3 44.75-12.4 45.1-12.55L45.1-12.55Q47.8-13.55 50.3-15.15 52.8-16.75 54.7-19.4L54.7-19.4Q55.6-20.65 56.05-22.3 56.5-23.95 56.37-25.65 56.25-27.35 55.52-28.95 54.8-30.55 53.4-31.7L53.4-31.7Q51.75-33.1 49.8-33.9 47.85-34.7 45.8-35 43.75-35.3 41.65-35.13 39.55-34.95 37.6-34.45L37.6-34.45Q37.25-34.35 37.2-34.33 37.15-34.3 37.1-34.4L37.1-34.4Q37.1-34.45 37.5-34.75L37.5-34.75Q38.3-35.25 39.62-35.68 40.95-36.1 42.62-36.25 44.3-36.4 46.25-36.23 48.2-36.05 50.25-35.3L50.25-35.3Q52.35-34.6 54.2-33.13 56.05-31.65 57.15-29.5L57.15-29.5Q58.2-27.4 58.22-25.43 58.25-23.45 57.9-22.15ZM32.5-30.3L32.5-30.3Q33.5-31.75 35.15-32.68 36.8-33.6 38.75-34.05 40.7-34.5 42.82-34.45 44.95-34.4 46.95-33.95 48.95-33.5 50.67-32.6 52.4-31.7 53.55-30.4L53.55-30.4Q54.35-29.45 54.77-28.38 55.2-27.3 55.22-26.18 55.25-25.05 54.97-24 54.7-22.95 54.2-22.05L54.2-22.05Q54.1-21.85 53.7-21.38 53.3-20.9 53.2-21L53.2-21Q53.1-21.05 53.35-21.55 53.6-22.05 53.7-22.3L53.7-22.3Q54.1-23.6 54.02-24.88 53.95-26.15 53.52-27.25 53.1-28.35 52.4-29.23 51.7-30.1 50.9-30.65L50.9-30.65Q49-31.9 46.6-32.43 44.2-32.95 41.72-32.83 39.25-32.7 36.9-31.98 34.55-31.25 32.85-30.05L32.85-30.05Q32.4-29.65 32.25-29.8L32.25-29.8Q32.15-29.85 32.27-30.03 32.4-30.2 32.5-30.3ZM59.15 1.2L59.15 1.2Q59.45 1.15 59.45 1.25L59.45 1.25Q59.45 1.35 59.2 1.45L59.2 1.45Q57.4 2.1 55.7 2.15 54 2.2 52.45 1.83 50.9 1.45 49.55 0.78 48.2 0.1 47.1-0.7L47.1-0.7Q45.8-1.65 44.62-2.83 43.45-4 42.35-5.18 41.25-6.35 40.15-7.45 39.05-8.55 37.9-9.4L37.9-9.4Q37.05-6.6 36.35-4.45L36.35-4.45Q36.25-4.2 36.15-4 36.05-3.8 35.95-3.85L35.95-3.85Q35.85-3.9 35.85-4.13 35.85-4.35 35.85-4.6L35.85-4.6Q35.95-6 36.05-7.45 36.15-8.9 36.5-10.35L36.5-10.35Q36.15-10.55 35.82-10.7 35.5-10.85 35.1-11.05L35.1-11.05Q34.95-11.2 34.95-11.25L34.95-11.25Q34.95-11.3 35.07-11.3 35.2-11.3 35.3-11.3L35.3-11.3Q37.3-11.15 38.95-10.08 40.6-9 42.15-7.55 43.7-6.1 45.2-4.48 46.7-2.85 48.4-1.6L48.4-1.6Q49.35-0.9 50.57-0.33 51.8 0.25 53.2 0.65 54.6 1.05 56.12 1.23 57.65 1.4 59.15 1.2ZM51.4-6.1L51.4-6.1Q52.8-4.85 54.07-3.3 55.35-1.75 56.55-0.8L56.55-0.8Q56.9-0.45 56.85-0.3L56.85-0.3Q56.75-0.2 56.6-0.25 56.45-0.3 56.25-0.35L56.25-0.35Q54.9-0.8 53.72-1.6 52.55-2.4 51.45-3.4 50.35-4.4 49.32-5.5 48.3-6.6 47.25-7.65L47.25-7.65Q46.55-8.35 45.72-9.2 44.9-10.05 44-10.78 43.1-11.5 42.12-11.98 41.15-12.45 40.1-12.45L40.1-12.45 42.05-13.3Q42.8-13.65 43.9-14.15 45-14.65 46-15.1 47-15.55 47.75-15.83 48.5-16.1 48.55-16.05L48.55-16.05Q48.6-15.95 48.37-15.7 48.15-15.45 47.77-15.15 47.4-14.85 47.05-14.6 46.7-14.35 46.55-14.3L46.55-14.3Q45.6-13.75 44.77-13.28 43.95-12.8 43.1-12.4L43.1-12.4Q44.25-11.95 45.45-11.13 46.65-10.3 47.75-9.35 48.85-8.4 49.8-7.53 50.75-6.65 51.4-6.1ZM35.2-3L35.2-3Q35.35-2.15 35.6-1.35 35.85-0.55 36.2 0L36.2 0Q36.25 0 36.27 0.08 36.3 0.15 36.2 0.15L36.2 0.15Q36.1 0.15 35.97 0.08 35.85 0 35.75 0L35.75 0Q35.1-0.4 34.72-0.98 34.35-1.55 34.1-3L34.1-3Q34-3.55 34-4.4 34-5.25 34.05-6.03 34.1-6.8 34.2-7.35 34.3-7.9 34.5-7.9L34.5-7.9Q34.55-7.9 34.62-7.65 34.7-7.4 34.75-7.08 34.8-6.75 34.82-6.45 34.85-6.15 34.85-6.05L34.85-6.05Q34.95-5.2 35-4.45 35.05-3.7 35.2-3ZM57.1 0.15L57.1 0.15Q57.9 0.2 58.32 0.18 58.75 0.15 59.45 0.05L59.45 0.05Q59.5 0.05 59.7 0.03 59.9 0 59.95 0.05L59.95 0.05Q60 0.15 59.82 0.3 59.65 0.45 59.55 0.5L59.55 0.5Q58.75 0.75 58.07 0.85 57.4 0.95 56.1 0.8L56.1 0.8Q55.65 0.75 55.1 0.6 54.55 0.45 54.1 0.28 53.65 0.1 53.4-0.08 53.15-0.25 53.3-0.35L53.3-0.35Q53.4-0.4 53.92-0.28 54.45-0.15 54.65-0.1L54.65-0.1Q55.35 0.05 55.95 0.1 56.55 0.15 57.1 0.15Z" fill="#ffffff" data-fill-palette-color="primary"></path></g></svg></g></svg></g></svg></g></svg></g><g><svg viewBox="0 0 128.544 158.199149697919" height="158.199149697919" width="128.544"><g><svg xmlns="http://www.w3.org/2000/svg" viewBox="8.31 5 44.69 55" x="0" y="0" height="158.199149697919" width="128.544" class="icon-icon-0" data-fill-palette-color="accent" id="icon-0"><path d="M25.912 23a6 6 0 1 0 6 6A6.007 6.007 0 0 0 25.912 23Zm0 10a4 4 0 1 1 4-4A4 4 0 0 1 25.912 33Z" fill="#ffffff" data-fill-palette-color="accent"></path><polygon points="45 23 42.075 23 43.375 41 53 41 53 23 45 23" fill="#ffffff" data-fill-palette-color="accent"></polygon><path d="M41.447 42.072l-0.3-4.123L25.943 37l-0.031 0a7.989 7.989 0 0 1-5.274-14H11.379a18.547 18.547 0 0 0-0.153 6.535c0.336 2.169 0.782 4.324 1.286 6.465H14v2H12.992c0.175 0.67 0.373 1.334 0.564 2H16v2H14.14c0.21 0.672 0.444 1.334 0.671 2H19v2H15.5l0.74 2H20v2H16.912v2H20v2H16.912v2H20v2H16.912v2h18V50a1 1 0 0 1 1-1H44V43H42.444A1 1 0 0 1 41.447 42.072Z" fill="#ffffff" data-fill-palette-color="accent"></path><circle cx="25.912" cy="29" r="2.0" fill="#ffffff" data-fill-palette-color="accent"></circle><polygon points="41 21 45 21 52.753 21 51.113 13.619 37.706 5 17.414 5 15.414 7 20 7 20 9 13.414 9 11.414 11 15 11 15 13 10.491 13 9.946 15 14 15 14 17 9.4 17 8.31 21 26 21 41 21" fill="#ffffff" data-fill-palette-color="accent"></polygon><path d="M40.07 23H31.186a7.97 7.97 0 0 1-0.36 12.3L41 35.936Z" fill="#ffffff" data-fill-palette-color="accent"></path></svg></g></svg></g></svg></g></svg></g></svg></g><defs></defs></svg><rect width="320" height="360" fill="none" stroke="none" visibility="hidden"></rect></g></svg></g></svg>