<?xml version="1.0" standalone="no"?>
<!DOCTYPE svg PUBLIC "-//W3C//DTD SVG 20010904//EN"
 "http://www.w3.org/TR/2001/REC-SVG-20010904/DTD/svg10.dtd">
<svg version="1.0" xmlns="http://www.w3.org/2000/svg"
 width="1041.000000pt" height="1041.000000pt" viewBox="0 0 1041.000000 1041.000000"
 preserveAspectRatio="xMidYMid meet">

<g transform="translate(0.000000,1041.000000) scale(0.100000,-0.100000)"
fill="#000000" stroke="none">
<path d="M0 5205 l0 -5205 5205 0 5205 0 0 5205 0 5205 -5205 0 -5205 0 0
-5205z m6705 4685 l310 -310 440 0 440 0 842 -842 843 -843 0 -440 0 -440 310
-310 310 -310 0 -1190 0 -1190 -310 -310 -310 -310 0 -443 0 -444 -843 -839
-842 -838 -440 -1 -440 0 -310 -310 -310 -310 -1190 0 -1190 0 -310 310 -310
310 -440 0 -440 0 -843 842 -842 842 0 441 0 440 -310 310 -310 310 0 1190 0
1190 310 310 310 310 0 440 0 440 843 843 842 842 440 0 440 0 310 310 310
310 1190 0 1190 0 310 -310z"/>
<path d="M3835 9820 l-240 -240 1610 0 1610 0 -240 240 -240 240 -1130 0
-1130 0 -240 -240z"/>
<path d="M1767 8642 l-797 -797 0 -338 c0 -185 3 -337 8 -337 9 0 2262 2253
2262 2263 0 4 -152 7 -338 7 l-337 0 -798 -798z"/>
<path d="M2213 8200 l-1243 -1240 0 -1755 0 -1755 1243 -1240 1242 -1239 1750
0 1750 0 1243 1240 1242 1240 0 1753 0 1754 -1242 1241 -1243 1241 -1750 -1
-1750 0 -1242 -1239z m1240 -1611 c19 -10 655 -416 666 -425 5 -4 81 -342 81
-360 0 -12 -186 -14 -1120 -14 -616 0 -1120 4 -1120 8 0 5 6 31 14 58 8 27 20
68 26 92 l11 42 114 0 115 0 0 50 0 50 -100 0 -100 0 6 28 c19 75 12 72 134
72 l110 0 0 50 0 50 -79 0 c-44 0 -82 4 -85 9 -3 5 17 29 44 55 l49 46 166 0
166 0 -3 48 -3 47 -114 5 -114 5 51 48 51 47 506 0 c362 0 513 -3 528 -11z
m2288 -215 c71 -104 156 -321 208 -536 28 -114 42 -196 116 -658 87 -549 215
-858 444 -1073 40 -38 71 -70 69 -73 -7 -7 -120 56 -168 95 -133 104 -237 267
-321 502 -26 72 -35 89 -48 83 -92 -39 -90 -39 -371 -39 l-275 0 -28 -50 c-68
-122 -197 -388 -227 -467 -19 -49 -38 -88 -43 -88 -16 0 0 138 27 230 13 47
54 152 90 233 36 81 66 150 66 153 0 3 -10 4 -22 2 -17 -2 -30 -24 -63 -103
-55 -132 -131 -359 -140 -418 -4 -26 -11 -47 -16 -47 -16 0 -31 83 -30 170 1
106 20 211 60 328 36 105 36 102 13 102 -14 0 -27 -24 -54 -97 -20 -54 -42
-117 -49 -140 -21 -73 -32 -51 -26 50 6 97 29 191 54 218 8 10 35 22 59 28 73
19 359 14 556 -9 179 -20 328 -25 387 -14 25 5 31 11 29 28 -2 13 -9 20 -18
17 -43 -10 -258 1 -360 18 -103 18 -288 65 -299 77 -3 2 1 10 8 17 9 9 90 12
324 12 271 0 312 2 312 15 0 12 -15 16 -65 18 -36 1 -152 14 -258 28 -267 36
-436 32 -565 -13 -102 -36 -178 -79 -254 -146 -31 -26 -57 -46 -60 -43 -9 9
69 119 118 167 28 27 85 66 131 89 l81 40 147 298 c209 424 377 729 391 715
12 -12 -29 -169 -78 -305 -21 -57 -101 -229 -178 -383 -77 -154 -141 -283
-143 -287 -2 -5 8 -8 22 -8 21 0 33 12 63 61 21 34 78 120 128 193 114 167
121 148 31 -78 -36 -91 -66 -167 -66 -170 0 -3 16 -6 35 -6 l36 0 97 198 c100
202 163 367 183 482 13 75 13 221 0 265 l-8 30 -6 -25 c-34 -150 -51 -212 -64
-227 -13 -16 -13 -3 -6 112 14 228 5 361 -33 460 -13 34 27 12 57 -31z m99 -5
c84 -68 182 -247 249 -454 44 -135 113 -461 135 -641 19 -154 25 -386 10 -391
-24 -8 -81 218 -168 667 -66 341 -110 482 -218 707 -75 156 -75 166 -8 112z
m1910 -28 c177 -51 279 -104 380 -197 295 -274 286 -706 -21 -1000 -114 -108
-229 -178 -380 -229 -61 -21 -210 -55 -240 -55 -30 0 4 22 94 60 261 110 438
244 553 418 138 206 120 526 -38 697 -111 121 -292 213 -493 251 -147 27 -405
12 -549 -32 -34 -11 -7 15 42 40 48 24 163 61 217 69 17 3 104 4 195 2 132 -2
180 -7 240 -24z m-265 -91 c195 -19 365 -79 491 -173 67 -49 110 -105 152
-195 23 -50 26 -70 26 -157 0 -85 -4 -110 -26 -163 -31 -75 -68 -132 -86 -132
-9 0 -6 13 9 43 28 53 38 212 19 284 -20 75 -69 160 -125 217 -224 227 -809
243 -1140 31 -31 -20 -62 -34 -68 -32 -7 2 20 36 58 76 108 112 258 178 455
200 104 12 122 12 235 1z m-1374 -132 c107 -147 213 -479 278 -873 11 -66 38
-249 61 -406 23 -158 54 -343 70 -410 15 -68 27 -126 25 -128 -15 -15 -66 79
-121 221 -69 177 -103 344 -160 783 -44 340 -96 576 -170 763 -39 99 -37 92
-24 92 5 0 24 -19 41 -42z m1514 -53 c164 -44 291 -139 352 -262 33 -66 37
-85 37 -147 0 -227 -246 -450 -769 -700 -76 -36 -136 -68 -134 -70 2 -2 33
-11 69 -20 122 -31 225 -91 329 -191 94 -90 196 -206 284 -322 45 -59 56 -83
39 -83 -15 0 -143 94 -217 159 -292 256 -453 375 -547 407 l-50 16 5 42 c3 23
22 93 42 156 70 227 163 557 179 635 9 44 20 122 25 174 6 51 12 96 15 99 8 8
27 -47 38 -113 23 -141 -44 -536 -136 -804 -14 -41 -26 -78 -26 -82 0 -9 299
181 424 269 43 30 121 96 172 145 75 71 102 105 130 163 33 65 36 79 32 133
-7 102 -81 188 -223 259 -93 47 -190 66 -345 66 l-135 1 3 -75 c7 -150 -33
-337 -134 -629 -70 -206 -115 -315 -142 -349 l-23 -27 6 65 c6 75 48 280 93
455 33 125 76 361 88 479 6 63 6 68 -12 64 -15 -2 -21 -16 -27 -58 -15 -103
-57 -285 -96 -420 -21 -74 -59 -205 -84 -290 -54 -188 -82 -319 -98 -465 -21
-202 8 -443 70 -566 32 -65 27 -76 -14 -28 -120 143 -172 435 -130 731 22 158
69 347 155 628 78 256 120 407 120 432 0 15 -5 15 -51 3 -28 -8 -94 -30 -146
-50 -52 -21 -96 -35 -99 -33 -2 3 23 24 56 47 112 79 271 140 435 167 107 18
359 12 440 -11z m-5055 -381 c0 -4 -14 -22 -31 -42 -42 -48 -77 -126 -90 -201
-35 -196 105 -403 302 -451 24 -5 228 -21 453 -35 226 -14 411 -27 412 -28 1
-1 6 -53 11 -115 5 -62 15 -118 21 -124 6 -6 34 -13 61 -16 l51 -5 0 -148 0
-149 -208 0 c-164 0 -212 -3 -228 -14 -18 -13 -19 -32 -24 -278 l-5 -263 -450
0 -450 0 -3 47 -3 47 78 3 78 3 3 47 3 47 -78 3 -78 3 0 50 0 50 78 3 78 3 -3
47 -3 47 -78 3 -78 3 3 47 3 47 75 5 75 5 0 45 0 45 -93 3 -93 3 -15 34 c-25
61 -23 64 69 67 l82 3 3 47 3 47 -108 3 -107 3 -18 48 -18 47 45 0 45 0 0 50
0 50 -55 0 c-60 0 -68 7 -80 73 -7 33 -5 37 14 37 19 0 21 6 21 49 l0 50 -37
3 -38 3 -32 159 c-39 198 -48 299 -34 400 6 43 14 82 17 87 6 10 454 13 454 3z
m345 -9 c122 -20 223 -140 232 -275 16 -228 -229 -391 -432 -287 -175 88 -224
311 -101 461 53 66 174 121 241 110 11 -1 38 -6 60 -9z m649 -7 c6 -31 47
-630 43 -634 -4 -4 -491 27 -496 32 -3 2 9 19 26 37 48 51 70 88 93 157 41
122 12 280 -70 373 -22 24 -36 47 -33 51 3 3 102 6 219 6 213 0 214 0 218 -22z
m651 -438 l0 -455 -234 -3 c-129 -1 -238 1 -243 6 -7 7 -68 786 -68 874 l0 38
273 -2 272 -3 0 -455z m3525 -128 c0 -21 -134 -111 -267 -179 -29 -15 -53 -30
-53 -34 0 -4 20 -17 45 -29 25 -12 81 -48 124 -79 104 -74 385 -325 447 -398
26 -32 89 -100 138 -150 96 -100 96 -114 0 -73 -106 46 -191 116 -459 380
-150 148 -291 279 -318 295 -26 15 -74 36 -105 45 l-57 18 35 15 c19 9 125 56
235 106 191 86 235 101 235 83z m-2600 -212 c0 -5 -21 -21 -47 -34 -27 -13
-99 -58 -162 -100 -63 -42 -117 -74 -119 -71 -9 9 30 83 57 108 40 38 103 74
157 91 57 17 114 20 114 6z m1852 -81 c129 -28 228 -100 487 -353 217 -212
298 -275 426 -330 125 -54 231 -77 380 -85 l130 -7 -55 -17 c-165 -51 -352
-35 -529 44 -140 63 -225 132 -477 386 -133 134 -248 243 -257 243 -11 0 -29
-43 -66 -159 -28 -88 -56 -163 -63 -167 -14 -9 -3 214 16 324 l13 74 -44 21
c-72 35 -56 46 39 26z m-108 -226 c3 -10 10 -72 16 -138 13 -133 34 -231 61
-287 26 -51 8 -56 -41 -12 -56 51 -74 115 -74 264 0 120 9 190 24 190 5 0 11
-8 14 -17z m-503 -120 c77 -145 143 -237 222 -314 39 -38 68 -71 65 -75 -12
-12 -169 79 -198 114 -62 76 -150 277 -150 344 0 15 2 28 4 28 2 0 28 -44 57
-97z m1783 -344 c38 -6 118 -9 178 -7 136 4 144 -13 20 -42 -67 -16 -194 1
-269 35 -57 26 -69 41 -25 31 15 -3 58 -11 96 -17z"/>
<path d="M5866 5669 c-33 -110 -83 -237 -152 -388 -47 -101 -83 -185 -82 -187
7 -7 340 -40 343 -34 3 4 -5 56 -16 115 -11 60 -33 196 -49 303 -28 189 -35
220 -44 191z"/>
<path d="M2765 5566 c-157 -69 -153 -304 7 -371 137 -56 294 66 274 213 -13
99 -97 172 -195 172 -31 -1 -69 -7 -86 -14z m139 -101 c102 -67 6 -227 -102
-171 -38 20 -52 44 -52 91 0 75 90 121 154 80z"/>
<path d="M7170 9432 c0 -9 2253 -2262 2263 -2262 4 0 7 151 7 336 l0 337 -797
798 -797 799 -338 0 c-186 0 -338 -3 -338 -8z"/>
<path d="M587 6572 l-237 -237 0 -1130 0 -1130 240 -240 240 -240 0 1608 c0
884 -1 1607 -3 1607 -1 0 -109 -107 -240 -238z"/>
<path d="M9580 5205 l0 -1610 240 240 240 240 0 1130 0 1130 -240 240 -240
240 0 -1610z"/>
<path d="M970 2903 l0 -338 797 -797 798 -798 337 0 c186 0 338 3 338 8 0 9
-2253 2262 -2263 2262 -4 0 -7 -152 -7 -337z"/>
<path d="M8297 2112 c-620 -620 -1127 -1130 -1127 -1135 0 -4 152 -7 338 -7
l337 0 798 798 797 797 0 338 c0 185 -3 337 -8 337 -4 0 -514 -507 -1135
-1128z"/>
<path d="M3835 590 l240 -240 1130 0 1130 0 240 240 240 240 -1610 0 -1610 0
240 -240z"/>
</g>
</svg>
